<?xml version="1.0" encoding="UTF-8" standalone="no"?>
<!DOCTYPE svg PUBLIC "-//W3C//DTD SVG 1.1//EN"
 "http://www.w3.org/Graphics/SVG/1.1/DTD/svg11.dtd">
<!-- Generated by graphviz version 2.38.0 (20140413.2041)
 -->
<!-- Title: %3 Pages: 1 -->
<svg width="1243pt" height="1367pt"
 viewBox="0.00 0.00 1243.42 1367.00" xmlns="http://www.w3.org/2000/svg" xmlns:xlink="http://www.w3.org/1999/xlink">
<g id="graph0" class="graph" transform="scale(1 1) rotate(0) translate(4 1363)">
<title>%3</title>
<polygon fill="white" stroke="none" points="-4,4 -4,-1363 1239.42,-1363 1239.42,4 -4,4"/>
<!-- DebugInfo -->
<g id="node1" class="node"><title>DebugInfo</title>
<ellipse fill="#abd3d2" stroke="white" cx="1034.52" cy="-423" rx="48.3341" ry="18"/>
<text text-anchor="middle" x="1034.52" y="-418.8" font-family="Times,serif" font-size="14.00">DebugInfo</text>
</g>
<!-- object -->
<g id="node2" class="node"><title>object</title>
<ellipse fill="#abd3d2" stroke="white" cx="1203.7" cy="-585" rx="31.9306" ry="18"/>
<text text-anchor="middle" x="1203.7" y="-580.8" font-family="Times,serif" font-size="14.00">object</text>
</g>
<!-- DebugInfo&#45;&gt;object -->
<g id="edge1" class="edge"><title>DebugInfo&#45;&gt;object</title>
<path fill="none" stroke="#999999" d="M1081.8,-427.13C1100.3,-430.762 1120.77,-437.511 1135.99,-450 1169.61,-477.593 1187.71,-526.344 1196.26,-557.096"/>
<polygon fill="#999999" stroke="#999999" points="1192.98,-558.371 1198.9,-567.158 1199.75,-556.597 1192.98,-558.371"/>
</g>
<!-- Op -->
<g id="node3" class="node"><title>Op</title>
<ellipse fill="#abd3d2" stroke="white" cx="870.042" cy="-396" rx="27" ry="18"/>
<text text-anchor="middle" x="870.042" y="-391.8" font-family="Times,serif" font-size="14.00">Op</text>
</g>
<!-- Op&#45;&gt;DebugInfo -->
<g id="edge3" class="edge"><title>Op&#45;&gt;DebugInfo</title>
<path fill="none" stroke="#999999" d="M896.429,-400.219C918.685,-403.917 951.782,-409.417 979.88,-414.087"/>
<polygon fill="#999999" stroke="#999999" points="979.537,-417.578 989.976,-415.764 980.685,-410.672 979.537,-417.578"/>
</g>
<!-- NameableValue -->
<g id="node4" class="node"><title>NameableValue</title>
<ellipse fill="#abd3d2" stroke="white" cx="1034.52" cy="-369" rx="66.1734" ry="18"/>
<text text-anchor="middle" x="1034.52" y="-364.8" font-family="Times,serif" font-size="14.00">NameableValue</text>
</g>
<!-- Op&#45;&gt;NameableValue -->
<g id="edge2" class="edge"><title>Op&#45;&gt;NameableValue</title>
<path fill="none" stroke="#999999" d="M896.429,-391.781C915.575,-388.6 942.743,-384.085 967.85,-379.912"/>
<polygon fill="#999999" stroke="#999999" points="968.424,-383.365 977.715,-378.273 967.277,-376.46 968.424,-383.365"/>
</g>
<!-- InitTensorOp -->
<g id="node5" class="node"><title>InitTensorOp</title>
<ellipse fill="#abd3d2" stroke="white" cx="737.501" cy="-612" rx="57.2708" ry="18"/>
<text text-anchor="middle" x="737.501" y="-607.8" font-family="Times,serif" font-size="14.00">InitTensorOp</text>
</g>
<!-- InitTensorOp&#45;&gt;Op -->
<g id="edge4" class="edge"><title>InitTensorOp&#45;&gt;Op</title>
<path fill="none" stroke="#999999" d="M782.969,-601.058C791.852,-597.184 800.46,-591.977 807.042,-585 849.678,-539.805 863.008,-464.78 867.166,-424.18"/>
<polygon fill="#999999" stroke="#999999" points="870.657,-424.442 868.075,-414.166 863.685,-423.809 870.657,-424.442"/>
</g>
<!-- AssignOp -->
<g id="node6" class="node"><title>AssignOp</title>
<ellipse fill="#abd3d2" stroke="white" cx="737.501" cy="-558" rx="45.47" ry="18"/>
<text text-anchor="middle" x="737.501" y="-553.8" font-family="Times,serif" font-size="14.00">AssignOp</text>
</g>
<!-- AssignOp&#45;&gt;Op -->
<g id="edge5" class="edge"><title>AssignOp&#45;&gt;Op</title>
<path fill="none" stroke="#999999" d="M776.682,-548.778C787.484,-544.723 798.588,-538.999 807.042,-531 838.045,-501.665 854.874,-453.843 862.898,-423.693"/>
<polygon fill="#999999" stroke="#999999" points="866.335,-424.377 865.378,-413.825 859.546,-422.67 866.335,-424.377"/>
</g>
<!-- AssignOneDOp -->
<g id="node7" class="node"><title>AssignOneDOp</title>
<ellipse fill="#abd3d2" stroke="white" cx="737.501" cy="-504" rx="66.7098" ry="18"/>
<text text-anchor="middle" x="737.501" y="-499.8" font-family="Times,serif" font-size="14.00">AssignOneDOp</text>
</g>
<!-- AssignOneDOp&#45;&gt;Op -->
<g id="edge6" class="edge"><title>AssignOneDOp&#45;&gt;Op</title>
<path fill="none" stroke="#999999" d="M782.794,-490.647C791.293,-486.981 799.793,-482.469 807.042,-477 826.905,-462.013 843.642,-439.077 854.7,-421.432"/>
<polygon fill="#999999" stroke="#999999" points="857.767,-423.124 859.951,-412.757 851.778,-419.499 857.767,-423.124"/>
</g>
<!-- SetItemOneDOp -->
<g id="node8" class="node"><title>SetItemOneDOp</title>
<ellipse fill="#abd3d2" stroke="white" cx="737.501" cy="-450" rx="69.5823" ry="18"/>
<text text-anchor="middle" x="737.501" y="-445.8" font-family="Times,serif" font-size="14.00">SetItemOneDOp</text>
</g>
<!-- SetItemOneDOp&#45;&gt;Op -->
<g id="edge7" class="edge"><title>SetItemOneDOp&#45;&gt;Op</title>
<path fill="none" stroke="#999999" d="M777.024,-435.102C786.84,-431.23 797.354,-427.016 807.042,-423 817.047,-418.853 827.892,-414.188 837.673,-409.918"/>
<polygon fill="#999999" stroke="#999999" points="839.278,-413.036 847.028,-405.813 836.465,-406.626 839.278,-413.036"/>
</g>
<!-- doall -->
<g id="node9" class="node"><title>doall</title>
<ellipse fill="#abd3d2" stroke="white" cx="737.501" cy="-396" rx="27.5804" ry="18"/>
<text text-anchor="middle" x="737.501" y="-391.8" font-family="Times,serif" font-size="14.00">doall</text>
</g>
<!-- doall&#45;&gt;Op -->
<g id="edge8" class="edge"><title>doall&#45;&gt;Op</title>
<path fill="none" stroke="#999999" d="M765.549,-396C784.971,-396 811.364,-396 832.635,-396"/>
<polygon fill="#999999" stroke="#999999" points="832.919,-399.5 842.919,-396 832.919,-392.5 832.919,-399.5"/>
</g>
<!-- Fill -->
<g id="node10" class="node"><title>Fill</title>
<ellipse fill="#abd3d2" stroke="white" cx="737.501" cy="-342" rx="27" ry="18"/>
<text text-anchor="middle" x="737.501" y="-337.8" font-family="Times,serif" font-size="14.00">Fill</text>
</g>
<!-- Fill&#45;&gt;Op -->
<g id="edge9" class="edge"><title>Fill&#45;&gt;Op</title>
<path fill="none" stroke="#999999" d="M761.43,-350.798C774.784,-355.981 791.92,-362.731 807.042,-369 817.047,-373.147 827.892,-377.812 837.673,-382.082"/>
<polygon fill="#999999" stroke="#999999" points="836.465,-385.374 847.028,-386.187 839.278,-378.964 836.465,-385.374"/>
</g>
<!-- TensorOp -->
<g id="node11" class="node"><title>TensorOp</title>
<ellipse fill="#abd3d2" stroke="white" cx="737.501" cy="-288" rx="44.7096" ry="18"/>
<text text-anchor="middle" x="737.501" y="-283.8" font-family="Times,serif" font-size="14.00">TensorOp</text>
</g>
<!-- TensorOp&#45;&gt;Op -->
<g id="edge10" class="edge"><title>TensorOp&#45;&gt;Op</title>
<path fill="none" stroke="#999999" d="M774.93,-298.186C785.906,-302.314 797.547,-307.836 807.042,-315 826.905,-329.987 843.642,-352.923 854.7,-370.568"/>
<polygon fill="#999999" stroke="#999999" points="851.778,-372.501 859.951,-379.243 857.767,-368.876 851.778,-372.501"/>
</g>
<!-- ReshapeOp -->
<g id="node12" class="node"><title>ReshapeOp</title>
<ellipse fill="#abd3d2" stroke="white" cx="547.185" cy="-1098" rx="50.7483" ry="18"/>
<text text-anchor="middle" x="547.185" y="-1093.8" font-family="Times,serif" font-size="14.00">ReshapeOp</text>
</g>
<!-- ReshapeOp&#45;&gt;TensorOp -->
<g id="edge11" class="edge"><title>ReshapeOp&#45;&gt;TensorOp</title>
<path fill="none" stroke="#999999" d="M550.815,-1079.99C567.819,-963.654 661.72,-322.817 667.96,-315 673.065,-308.604 679.9,-303.719 687.281,-299.989"/>
<polygon fill="#999999" stroke="#999999" points="689.046,-303.039 696.834,-295.855 686.266,-296.615 689.046,-303.039"/>
</g>
<!-- Transpose -->
<g id="node13" class="node"><title>Transpose</title>
<ellipse fill="#abd3d2" stroke="white" cx="311.541" cy="-1341" rx="46.2918" ry="18"/>
<text text-anchor="middle" x="311.541" y="-1336.8" font-family="Times,serif" font-size="14.00">Transpose</text>
</g>
<!-- Transpose&#45;&gt;ReshapeOp -->
<g id="edge12" class="edge"><title>Transpose&#45;&gt;ReshapeOp</title>
<path fill="none" stroke="#999999" d="M357.518,-1338.82C380.089,-1335.75 406.738,-1328.91 426.409,-1314 490.422,-1265.47 524.887,-1172.3 538.771,-1125.81"/>
<polygon fill="#999999" stroke="#999999" points="542.163,-1126.68 541.572,-1116.1 535.437,-1124.74 542.163,-1126.68"/>
</g>
<!-- AxesCastOp -->
<g id="node14" class="node"><title>AxesCastOp</title>
<ellipse fill="#abd3d2" stroke="white" cx="311.541" cy="-1287" rx="54.6248" ry="18"/>
<text text-anchor="middle" x="311.541" y="-1282.8" font-family="Times,serif" font-size="14.00">AxesCastOp</text>
</g>
<!-- AxesCastOp&#45;&gt;ReshapeOp -->
<g id="edge13" class="edge"><title>AxesCastOp&#45;&gt;ReshapeOp</title>
<path fill="none" stroke="#999999" d="M364.636,-1282.43C385.184,-1278.72 408.182,-1272.03 426.409,-1260 478.125,-1225.86 515.626,-1161.38 533.818,-1124.91"/>
<polygon fill="#999999" stroke="#999999" points="537.001,-1126.37 538.229,-1115.85 530.706,-1123.31 537.001,-1126.37"/>
</g>
<!-- ExpandDims -->
<g id="node15" class="node"><title>ExpandDims</title>
<ellipse fill="#abd3d2" stroke="white" cx="311.541" cy="-1233" rx="56.07" ry="18"/>
<text text-anchor="middle" x="311.541" y="-1228.8" font-family="Times,serif" font-size="14.00">ExpandDims</text>
</g>
<!-- ExpandDims&#45;&gt;ReshapeOp -->
<g id="edge14" class="edge"><title>ExpandDims&#45;&gt;ReshapeOp</title>
<path fill="none" stroke="#999999" d="M364.083,-1226.42C384.324,-1222.42 407.25,-1216.05 426.409,-1206 466.231,-1185.1 503.232,-1147.91 525.277,-1123.1"/>
<polygon fill="#999999" stroke="#999999" points="527.957,-1125.36 531.893,-1115.52 522.682,-1120.75 527.957,-1125.36"/>
</g>
<!-- ResultHandle -->
<g id="node16" class="node"><title>ResultHandle</title>
<ellipse fill="#abd3d2" stroke="white" cx="311.541" cy="-1179" rx="58.491" ry="18"/>
<text text-anchor="middle" x="311.541" y="-1174.8" font-family="Times,serif" font-size="14.00">ResultHandle</text>
</g>
<!-- ResultHandle&#45;&gt;ReshapeOp -->
<g id="edge15" class="edge"><title>ResultHandle&#45;&gt;ReshapeOp</title>
<path fill="none" stroke="#999999" d="M361.322,-1169.58C381.691,-1165.09 405.446,-1159.14 426.409,-1152 454.496,-1142.44 484.964,-1128.65 508.142,-1117.4"/>
<polygon fill="#999999" stroke="#999999" points="509.848,-1120.46 517.282,-1112.91 506.763,-1114.18 509.848,-1120.46"/>
</g>
<!-- BroadcastOp -->
<g id="node17" class="node"><title>BroadcastOp</title>
<ellipse fill="#abd3d2" stroke="white" cx="311.541" cy="-1125" rx="56.0528" ry="18"/>
<text text-anchor="middle" x="311.541" y="-1120.8" font-family="Times,serif" font-size="14.00">BroadcastOp</text>
</g>
<!-- BroadcastOp&#45;&gt;ReshapeOp -->
<g id="edge16" class="edge"><title>BroadcastOp&#45;&gt;ReshapeOp</title>
<path fill="none" stroke="#999999" d="M364.684,-1118.97C401.319,-1114.74 450.345,-1109.08 488.208,-1104.7"/>
<polygon fill="#999999" stroke="#999999" points="489.04,-1108.13 498.572,-1103.5 488.236,-1101.17 489.04,-1108.13"/>
</g>
<!-- ReorderAxes -->
<g id="node18" class="node"><title>ReorderAxes</title>
<ellipse fill="#abd3d2" stroke="white" cx="311.541" cy="-1071" rx="56.5287" ry="18"/>
<text text-anchor="middle" x="311.541" y="-1066.8" font-family="Times,serif" font-size="14.00">ReorderAxes</text>
</g>
<!-- ReorderAxes&#45;&gt;ReshapeOp -->
<g id="edge17" class="edge"><title>ReorderAxes&#45;&gt;ReshapeOp</title>
<path fill="none" stroke="#999999" d="M365.266,-1077.09C401.805,-1081.32 450.459,-1086.94 488.109,-1091.29"/>
<polygon fill="#999999" stroke="#999999" points="488.082,-1094.81 498.417,-1092.48 488.885,-1087.86 488.082,-1094.81"/>
</g>
<!-- Slice -->
<g id="node19" class="node"><title>Slice</title>
<ellipse fill="#abd3d2" stroke="white" cx="311.541" cy="-1017" rx="27.5804" ry="18"/>
<text text-anchor="middle" x="311.541" y="-1012.8" font-family="Times,serif" font-size="14.00">Slice</text>
</g>
<!-- Slice&#45;&gt;ReshapeOp -->
<g id="edge18" class="edge"><title>Slice&#45;&gt;ReshapeOp</title>
<path fill="none" stroke="#999999" d="M338.717,-1021.73C362.058,-1026.29 396.983,-1033.98 426.409,-1044 454.496,-1053.56 484.964,-1067.35 508.142,-1078.6"/>
<polygon fill="#999999" stroke="#999999" points="506.763,-1081.82 517.282,-1083.09 509.848,-1075.54 506.763,-1081.82"/>
</g>
<!-- Flatten -->
<g id="node20" class="node"><title>Flatten</title>
<ellipse fill="#abd3d2" stroke="white" cx="311.541" cy="-963" rx="34.8371" ry="18"/>
<text text-anchor="middle" x="311.541" y="-958.8" font-family="Times,serif" font-size="14.00">Flatten</text>
</g>
<!-- Flatten&#45;&gt;ReshapeOp -->
<g id="edge19" class="edge"><title>Flatten&#45;&gt;ReshapeOp</title>
<path fill="none" stroke="#999999" d="M345.726,-966.428C369.303,-969.898 401.133,-976.735 426.409,-990 466.231,-1010.9 503.232,-1048.09 525.277,-1072.9"/>
<polygon fill="#999999" stroke="#999999" points="522.682,-1075.25 531.893,-1080.48 527.957,-1070.64 522.682,-1075.25"/>
</g>
<!-- Unflatten -->
<g id="node21" class="node"><title>Unflatten</title>
<ellipse fill="#abd3d2" stroke="white" cx="311.541" cy="-909" rx="43.0387" ry="18"/>
<text text-anchor="middle" x="311.541" y="-904.8" font-family="Times,serif" font-size="14.00">Unflatten</text>
</g>
<!-- Unflatten&#45;&gt;ReshapeOp -->
<g id="edge20" class="edge"><title>Unflatten&#45;&gt;ReshapeOp</title>
<path fill="none" stroke="#999999" d="M354.282,-911.906C377.127,-915.135 405.045,-921.897 426.409,-936 478.125,-970.141 515.626,-1034.62 533.818,-1071.09"/>
<polygon fill="#999999" stroke="#999999" points="530.706,-1072.69 538.229,-1080.15 537.001,-1069.63 530.706,-1072.69"/>
</g>
<!-- AssignableTensorOp -->
<g id="node22" class="node"><title>AssignableTensorOp</title>
<ellipse fill="#abd3d2" stroke="white" cx="547.185" cy="-504" rx="84.3074" ry="18"/>
<text text-anchor="middle" x="547.185" y="-499.8" font-family="Times,serif" font-size="14.00">AssignableTensorOp</text>
</g>
<!-- AssignableTensorOp&#45;&gt;TensorOp -->
<g id="edge21" class="edge"><title>AssignableTensorOp&#45;&gt;TensorOp</title>
<path fill="none" stroke="#999999" d="M610.716,-492.092C618.687,-488.349 626.094,-483.439 631.96,-477 681.63,-422.476 620.045,-371.073 667.96,-315 673.276,-308.779 680.217,-303.981 687.637,-300.283"/>
<polygon fill="#999999" stroke="#999999" points="689.406,-303.332 697.208,-296.163 686.638,-296.902 689.406,-303.332"/>
</g>
<!-- Stack -->
<g id="node23" class="node"><title>Stack</title>
<ellipse fill="#abd3d2" stroke="white" cx="547.185" cy="-450" rx="29.5104" ry="18"/>
<text text-anchor="middle" x="547.185" y="-445.8" font-family="Times,serif" font-size="14.00">Stack</text>
</g>
<!-- Stack&#45;&gt;TensorOp -->
<g id="edge22" class="edge"><title>Stack&#45;&gt;TensorOp</title>
<path fill="none" stroke="#999999" d="M576.814,-447.334C594.805,-444.229 617.3,-437.514 631.96,-423 667.915,-387.402 633.153,-351.721 667.96,-315 673.59,-309.061 680.687,-304.404 688.166,-300.759"/>
<polygon fill="#999999" stroke="#999999" points="689.939,-303.808 697.763,-296.664 687.192,-297.37 689.939,-303.808"/>
</g>
<!-- Unslice -->
<g id="node24" class="node"><title>Unslice</title>
<ellipse fill="#abd3d2" stroke="white" cx="547.185" cy="-396" rx="37.2421" ry="18"/>
<text text-anchor="middle" x="547.185" y="-391.8" font-family="Times,serif" font-size="14.00">Unslice</text>
</g>
<!-- Unslice&#45;&gt;TensorOp -->
<g id="edge23" class="edge"><title>Unslice&#45;&gt;TensorOp</title>
<path fill="none" stroke="#999999" d="M582.844,-390.3C598.973,-386.348 617.698,-379.781 631.96,-369 654.97,-351.606 645.514,-333.115 667.96,-315 674.613,-309.631 682.464,-305.225 690.435,-301.645"/>
<polygon fill="#999999" stroke="#999999" points="691.856,-304.845 699.782,-297.814 689.202,-298.368 691.856,-304.845"/>
</g>
<!-- RNG -->
<g id="node25" class="node"><title>RNG</title>
<ellipse fill="#abd3d2" stroke="white" cx="1034.52" cy="-747" rx="28.5583" ry="18"/>
<text text-anchor="middle" x="1034.52" y="-742.8" font-family="Times,serif" font-size="14.00">RNG</text>
</g>
<!-- RNG&#45;&gt;object -->
<g id="edge24" class="edge"><title>RNG&#45;&gt;object</title>
<path fill="none" stroke="#999999" d="M1063.49,-745.644C1085.38,-743.245 1115.46,-736.843 1135.99,-720 1169.61,-692.407 1187.71,-643.656 1196.26,-612.904"/>
<polygon fill="#999999" stroke="#999999" points="1199.75,-613.403 1198.9,-602.842 1192.98,-611.629 1199.75,-613.403"/>
</g>
<!-- AllReduce -->
<g id="node26" class="node"><title>AllReduce</title>
<ellipse fill="#abd3d2" stroke="white" cx="737.501" cy="-234" rx="47.8496" ry="18"/>
<text text-anchor="middle" x="737.501" y="-229.8" font-family="Times,serif" font-size="14.00">AllReduce</text>
</g>
<!-- AllReduce&#45;&gt;Op -->
<g id="edge25" class="edge"><title>AllReduce&#45;&gt;Op</title>
<path fill="none" stroke="#999999" d="M778.108,-243.766C788.455,-247.785 798.96,-253.353 807.042,-261 838.045,-290.335 854.874,-338.157 862.898,-368.307"/>
<polygon fill="#999999" stroke="#999999" points="859.546,-369.33 865.378,-378.175 866.335,-367.623 859.546,-369.33"/>
</g>
<!-- ElementWise -->
<g id="node27" class="node"><title>ElementWise</title>
<ellipse fill="#abd3d2" stroke="white" cx="547.185" cy="-342" rx="57.2888" ry="18"/>
<text text-anchor="middle" x="547.185" y="-337.8" font-family="Times,serif" font-size="14.00">ElementWise</text>
</g>
<!-- ElementWise&#45;&gt;TensorOp -->
<g id="edge26" class="edge"><title>ElementWise&#45;&gt;TensorOp</title>
<path fill="none" stroke="#999999" d="M590.446,-329.881C620.162,-321.36 659.906,-309.964 690.432,-301.21"/>
<polygon fill="#999999" stroke="#999999" points="691.755,-304.472 700.403,-298.351 689.826,-297.743 691.755,-304.472"/>
</g>
<!-- UnaryElementwiseAxesOp -->
<g id="node28" class="node"><title>UnaryElementwiseAxesOp</title>
<ellipse fill="#abd3d2" stroke="white" cx="311.541" cy="-855" rx="106.734" ry="18"/>
<text text-anchor="middle" x="311.541" y="-850.8" font-family="Times,serif" font-size="14.00">UnaryElementwiseAxesOp</text>
</g>
<!-- UnaryElementwiseAxesOp&#45;&gt;ElementWise -->
<g id="edge27" class="edge"><title>UnaryElementwiseAxesOp&#45;&gt;ElementWise</title>
<path fill="none" stroke="#999999" d="M312.507,-836.589C313.4,-765.619 326.236,-506.908 462.409,-369 468.954,-362.372 477.131,-357.37 485.792,-353.595"/>
<polygon fill="#999999" stroke="#999999" points="487.229,-356.793 495.327,-349.961 484.736,-350.252 487.229,-356.793"/>
</g>
<!-- UnaryElementwiseOneDOp -->
<g id="node29" class="node"><title>UnaryElementwiseOneDOp</title>
<ellipse fill="#abd3d2" stroke="white" cx="311.541" cy="-369" rx="109.624" ry="18"/>
<text text-anchor="middle" x="311.541" y="-364.8" font-family="Times,serif" font-size="14.00">UnaryElementwiseOneDOp</text>
</g>
<!-- UnaryElementwiseOneDOp&#45;&gt;ElementWise -->
<g id="edge28" class="edge"><title>UnaryElementwiseOneDOp&#45;&gt;ElementWise</title>
<path fill="none" stroke="#999999" d="M401.872,-358.677C428.933,-355.55 458.08,-352.181 483.047,-349.296"/>
<polygon fill="#999999" stroke="#999999" points="483.58,-352.758 493.112,-348.133 482.776,-345.804 483.58,-352.758"/>
</g>
<!-- NegativeOneDOp -->
<g id="node30" class="node"><title>NegativeOneDOp</title>
<ellipse fill="#abd3d2" stroke="white" cx="80.3364" cy="-585" rx="73.9085" ry="18"/>
<text text-anchor="middle" x="80.3364" y="-580.8" font-family="Times,serif" font-size="14.00">NegativeOneDOp</text>
</g>
<!-- NegativeOneDOp&#45;&gt;UnaryElementwiseOneDOp -->
<g id="edge29" class="edge"><title>NegativeOneDOp&#45;&gt;UnaryElementwiseOneDOp</title>
<path fill="none" stroke="#999999" d="M132.94,-572.248C142.646,-568.548 152.35,-563.869 160.673,-558 223.061,-514.005 272.593,-436.827 295.942,-396.035"/>
<polygon fill="#999999" stroke="#999999" points="299.061,-397.629 300.915,-387.198 292.96,-394.196 299.061,-397.629"/>
</g>
<!-- NegativeOp -->
<g id="node31" class="node"><title>NegativeOp</title>
<ellipse fill="#abd3d2" stroke="white" cx="80.3364" cy="-1179" rx="52.6693" ry="18"/>
<text text-anchor="middle" x="80.3364" y="-1174.8" font-family="Times,serif" font-size="14.00">NegativeOp</text>
</g>
<!-- NegativeOp&#45;&gt;UnaryElementwiseAxesOp -->
<g id="edge30" class="edge"><title>NegativeOp&#45;&gt;UnaryElementwiseAxesOp</title>
<path fill="none" stroke="#999999" d="M129.321,-1171.89C141.171,-1167.89 152.731,-1161.67 160.673,-1152 237.514,-1058.45 115.466,-971.786 196.673,-882 201.145,-877.056 206.341,-872.935 212.002,-869.509"/>
<polygon fill="#999999" stroke="#999999" points="214.004,-872.412 221.244,-864.677 210.761,-866.209 214.004,-872.412"/>
</g>
<!-- AbsoluteOneDOp -->
<g id="node32" class="node"><title>AbsoluteOneDOp</title>
<ellipse fill="#abd3d2" stroke="white" cx="80.3364" cy="-531" rx="73.9344" ry="18"/>
<text text-anchor="middle" x="80.3364" y="-526.8" font-family="Times,serif" font-size="14.00">AbsoluteOneDOp</text>
</g>
<!-- AbsoluteOneDOp&#45;&gt;UnaryElementwiseOneDOp -->
<g id="edge31" class="edge"><title>AbsoluteOneDOp&#45;&gt;UnaryElementwiseOneDOp</title>
<path fill="none" stroke="#999999" d="M130.538,-517.726C140.84,-514.004 151.387,-509.449 160.673,-504 211.965,-473.903 261.157,-424.328 288.464,-394.362"/>
<polygon fill="#999999" stroke="#999999" points="291.158,-396.601 295.246,-386.827 285.954,-391.918 291.158,-396.601"/>
</g>
<!-- AbsoluteOp -->
<g id="node33" class="node"><title>AbsoluteOp</title>
<ellipse fill="#abd3d2" stroke="white" cx="80.3364" cy="-1125" rx="52.6952" ry="18"/>
<text text-anchor="middle" x="80.3364" y="-1120.8" font-family="Times,serif" font-size="14.00">AbsoluteOp</text>
</g>
<!-- AbsoluteOp&#45;&gt;UnaryElementwiseAxesOp -->
<g id="edge32" class="edge"><title>AbsoluteOp&#45;&gt;UnaryElementwiseAxesOp</title>
<path fill="none" stroke="#999999" d="M129.114,-1117.71C140.963,-1113.71 152.574,-1107.54 160.673,-1098 223.665,-1023.81 130.221,-953.107 196.673,-882 201.379,-876.963 206.839,-872.788 212.769,-869.333"/>
<polygon fill="#999999" stroke="#999999" points="214.426,-872.417 221.76,-864.771 211.259,-866.174 214.426,-872.417"/>
</g>
<!-- SinOneDOp -->
<g id="node34" class="node"><title>SinOneDOp</title>
<ellipse fill="#abd3d2" stroke="white" cx="80.3364" cy="-477" rx="53.6643" ry="18"/>
<text text-anchor="middle" x="80.3364" y="-472.8" font-family="Times,serif" font-size="14.00">SinOneDOp</text>
</g>
<!-- SinOneDOp&#45;&gt;UnaryElementwiseOneDOp -->
<g id="edge33" class="edge"><title>SinOneDOp&#45;&gt;UnaryElementwiseOneDOp</title>
<path fill="none" stroke="#999999" d="M120.975,-464.959C133.815,-460.676 148.006,-455.532 160.673,-450 200.096,-432.783 243.102,-408.982 272.892,-391.636"/>
<polygon fill="#999999" stroke="#999999" points="274.838,-394.552 281.694,-386.475 271.298,-388.514 274.838,-394.552"/>
</g>
<!-- SinOp -->
<g id="node35" class="node"><title>SinOp</title>
<ellipse fill="#abd3d2" stroke="white" cx="80.3364" cy="-1071" rx="32.9255" ry="18"/>
<text text-anchor="middle" x="80.3364" y="-1066.8" font-family="Times,serif" font-size="14.00">SinOp</text>
</g>
<!-- SinOp&#45;&gt;UnaryElementwiseAxesOp -->
<g id="edge34" class="edge"><title>SinOp&#45;&gt;UnaryElementwiseAxesOp</title>
<path fill="none" stroke="#999999" d="M112.864,-1067.66C129.335,-1064.3 148.535,-1057.54 160.673,-1044 209.898,-989.074 144.889,-934.521 196.673,-882 201.56,-877.043 207.18,-872.929 213.247,-869.521"/>
<polygon fill="#999999" stroke="#999999" points="214.989,-872.565 222.425,-865.018 211.905,-866.281 214.989,-872.565"/>
</g>
<!-- CosOneDOp -->
<g id="node36" class="node"><title>CosOneDOp</title>
<ellipse fill="#abd3d2" stroke="white" cx="80.3364" cy="-423" rx="55.594" ry="18"/>
<text text-anchor="middle" x="80.3364" y="-418.8" font-family="Times,serif" font-size="14.00">CosOneDOp</text>
</g>
<!-- CosOneDOp&#45;&gt;UnaryElementwiseOneDOp -->
<g id="edge35" class="edge"><title>CosOneDOp&#45;&gt;UnaryElementwiseOneDOp</title>
<path fill="none" stroke="#999999" d="M125.801,-412.524C157.573,-405.039 201.031,-394.8 237.815,-386.134"/>
<polygon fill="#999999" stroke="#999999" points="239.067,-389.435 247.998,-383.735 237.462,-382.622 239.067,-389.435"/>
</g>
<!-- CosOp -->
<g id="node37" class="node"><title>CosOp</title>
<ellipse fill="#abd3d2" stroke="white" cx="80.3364" cy="-1017" rx="34.8545" ry="18"/>
<text text-anchor="middle" x="80.3364" y="-1012.8" font-family="Times,serif" font-size="14.00">CosOp</text>
</g>
<!-- CosOp&#45;&gt;UnaryElementwiseAxesOp -->
<g id="edge36" class="edge"><title>CosOp&#45;&gt;UnaryElementwiseAxesOp</title>
<path fill="none" stroke="#999999" d="M114.299,-1012.72C130.164,-1009.09 148.366,-1002.38 160.673,-990 196.337,-954.111 159.341,-916.151 196.673,-882 202.083,-877.05 208.232,-872.96 214.803,-869.584"/>
<polygon fill="#999999" stroke="#999999" points="216.336,-872.732 223.995,-865.411 213.442,-866.358 216.336,-872.732"/>
</g>
<!-- TanhOneDOp -->
<g id="node38" class="node"><title>TanhOneDOp</title>
<ellipse fill="#abd3d2" stroke="white" cx="80.3364" cy="-369" rx="59.676" ry="18"/>
<text text-anchor="middle" x="80.3364" y="-364.8" font-family="Times,serif" font-size="14.00">TanhOneDOp</text>
</g>
<!-- TanhOneDOp&#45;&gt;UnaryElementwiseOneDOp -->
<g id="edge37" class="edge"><title>TanhOneDOp&#45;&gt;UnaryElementwiseOneDOp</title>
<path fill="none" stroke="#999999" d="M140.065,-369C155.809,-369 173.416,-369 191.176,-369"/>
<polygon fill="#999999" stroke="#999999" points="191.638,-372.5 201.638,-369 191.638,-365.5 191.638,-372.5"/>
</g>
<!-- TanhOp -->
<g id="node39" class="node"><title>TanhOp</title>
<ellipse fill="#abd3d2" stroke="white" cx="80.3364" cy="-963" rx="38.4362" ry="18"/>
<text text-anchor="middle" x="80.3364" y="-958.8" font-family="Times,serif" font-size="14.00">TanhOp</text>
</g>
<!-- TanhOp&#45;&gt;UnaryElementwiseAxesOp -->
<g id="edge38" class="edge"><title>TanhOp&#45;&gt;UnaryElementwiseAxesOp</title>
<path fill="none" stroke="#999999" d="M116.141,-956.409C130.953,-952.341 147.754,-945.932 160.673,-936 183.541,-918.42 172.994,-898.472 196.673,-882 203.566,-877.205 211.2,-873.254 219.158,-870.001"/>
<polygon fill="#999999" stroke="#999999" points="220.463,-873.25 228.623,-866.492 218.03,-866.686 220.463,-873.25"/>
</g>
<!-- ExpOneDOp -->
<g id="node40" class="node"><title>ExpOneDOp</title>
<ellipse fill="#abd3d2" stroke="white" cx="80.3364" cy="-315" rx="56.0614" ry="18"/>
<text text-anchor="middle" x="80.3364" y="-310.8" font-family="Times,serif" font-size="14.00">ExpOneDOp</text>
</g>
<!-- ExpOneDOp&#45;&gt;UnaryElementwiseOneDOp -->
<g id="edge39" class="edge"><title>ExpOneDOp&#45;&gt;UnaryElementwiseOneDOp</title>
<path fill="none" stroke="#999999" d="M126.073,-325.54C157.869,-333.031 201.266,-343.255 237.98,-351.905"/>
<polygon fill="#999999" stroke="#999999" points="237.607,-355.413 248.143,-354.299 239.212,-348.599 237.607,-355.413"/>
</g>
<!-- ExpOp -->
<g id="node41" class="node"><title>ExpOp</title>
<ellipse fill="#abd3d2" stroke="white" cx="80.3364" cy="-909" rx="35.3216" ry="18"/>
<text text-anchor="middle" x="80.3364" y="-904.8" font-family="Times,serif" font-size="14.00">ExpOp</text>
</g>
<!-- ExpOp&#45;&gt;UnaryElementwiseAxesOp -->
<g id="edge40" class="edge"><title>ExpOp&#45;&gt;UnaryElementwiseAxesOp</title>
<path fill="none" stroke="#999999" d="M112.726,-901.605C144.961,-894.01 196.254,-881.926 238.531,-871.965"/>
<polygon fill="#999999" stroke="#999999" points="239.579,-875.314 248.51,-869.614 237.974,-868.501 239.579,-875.314"/>
</g>
<!-- LogOneDOp -->
<g id="node42" class="node"><title>LogOneDOp</title>
<ellipse fill="#abd3d2" stroke="white" cx="80.3364" cy="-261" rx="56.0614" ry="18"/>
<text text-anchor="middle" x="80.3364" y="-256.8" font-family="Times,serif" font-size="14.00">LogOneDOp</text>
</g>
<!-- LogOneDOp&#45;&gt;UnaryElementwiseOneDOp -->
<g id="edge41" class="edge"><title>LogOneDOp&#45;&gt;UnaryElementwiseOneDOp</title>
<path fill="none" stroke="#999999" d="M127.531,-271.099C139.111,-275.084 150.984,-280.551 160.673,-288 183.541,-305.58 172.994,-325.528 196.673,-342 203.372,-346.66 210.772,-350.523 218.489,-353.724"/>
<polygon fill="#999999" stroke="#999999" points="217.44,-357.068 228.032,-357.308 219.902,-350.515 217.44,-357.068"/>
</g>
<!-- LogOp -->
<g id="node43" class="node"><title>LogOp</title>
<ellipse fill="#abd3d2" stroke="white" cx="80.3364" cy="-855" rx="35.3216" ry="18"/>
<text text-anchor="middle" x="80.3364" y="-850.8" font-family="Times,serif" font-size="14.00">LogOp</text>
</g>
<!-- LogOp&#45;&gt;UnaryElementwiseAxesOp -->
<g id="edge42" class="edge"><title>LogOp&#45;&gt;UnaryElementwiseAxesOp</title>
<path fill="none" stroke="#999999" d="M115.651,-855C136.932,-855 165.636,-855 194.465,-855"/>
<polygon fill="#999999" stroke="#999999" points="194.655,-858.5 204.655,-855 194.655,-851.5 194.655,-858.5"/>
</g>
<!-- ReciprocalOneDOp -->
<g id="node44" class="node"><title>ReciprocalOneDOp</title>
<ellipse fill="#abd3d2" stroke="white" cx="80.3364" cy="-207" rx="80.1731" ry="18"/>
<text text-anchor="middle" x="80.3364" y="-202.8" font-family="Times,serif" font-size="14.00">ReciprocalOneDOp</text>
</g>
<!-- ReciprocalOneDOp&#45;&gt;UnaryElementwiseOneDOp -->
<g id="edge43" class="edge"><title>ReciprocalOneDOp&#45;&gt;UnaryElementwiseOneDOp</title>
<path fill="none" stroke="#999999" d="M138.82,-219.357C146.892,-223.035 154.519,-227.808 160.673,-234 196.337,-269.889 159.341,-307.849 196.673,-342 201.809,-346.699 207.611,-350.624 213.808,-353.897"/>
<polygon fill="#999999" stroke="#999999" points="212.594,-357.193 223.137,-358.242 215.55,-350.848 212.594,-357.193"/>
</g>
<!-- ReciprocalOp -->
<g id="node45" class="node"><title>ReciprocalOp</title>
<ellipse fill="#abd3d2" stroke="white" cx="80.3364" cy="-801" rx="59.4339" ry="18"/>
<text text-anchor="middle" x="80.3364" y="-796.8" font-family="Times,serif" font-size="14.00">ReciprocalOp</text>
</g>
<!-- ReciprocalOp&#45;&gt;UnaryElementwiseAxesOp -->
<g id="edge44" class="edge"><title>ReciprocalOp&#45;&gt;UnaryElementwiseAxesOp</title>
<path fill="none" stroke="#999999" d="M127.719,-811.928C159.524,-819.421 202.351,-829.511 238.559,-838.041"/>
<polygon fill="#999999" stroke="#999999" points="238.045,-841.516 248.581,-840.402 239.65,-834.702 238.045,-841.516"/>
</g>
<!-- SignOneDOp -->
<g id="node46" class="node"><title>SignOneDOp</title>
<ellipse fill="#abd3d2" stroke="white" cx="80.3364" cy="-153" rx="58.0083" ry="18"/>
<text text-anchor="middle" x="80.3364" y="-148.8" font-family="Times,serif" font-size="14.00">SignOneDOp</text>
</g>
<!-- SignOneDOp&#45;&gt;UnaryElementwiseOneDOp -->
<g id="edge45" class="edge"><title>SignOneDOp&#45;&gt;UnaryElementwiseOneDOp</title>
<path fill="none" stroke="#999999" d="M131.669,-161.598C142.51,-165.592 153.002,-171.44 160.673,-180 209.898,-234.926 144.889,-289.479 196.673,-342 201.306,-346.7 206.598,-350.641 212.305,-353.942"/>
<polygon fill="#999999" stroke="#999999" points="211.076,-357.242 221.581,-358.617 214.226,-350.991 211.076,-357.242"/>
</g>
<!-- SignOp -->
<g id="node47" class="node"><title>SignOp</title>
<ellipse fill="#abd3d2" stroke="white" cx="80.3364" cy="-747" rx="37.2681" ry="18"/>
<text text-anchor="middle" x="80.3364" y="-742.8" font-family="Times,serif" font-size="14.00">SignOp</text>
</g>
<!-- SignOp&#45;&gt;UnaryElementwiseAxesOp -->
<g id="edge46" class="edge"><title>SignOp&#45;&gt;UnaryElementwiseAxesOp</title>
<path fill="none" stroke="#999999" d="M112.308,-756.21C127.161,-760.962 145.073,-767.187 160.673,-774 200.219,-791.271 243.37,-815.167 273.17,-832.526"/>
<polygon fill="#999999" stroke="#999999" points="271.575,-835.648 281.971,-837.688 275.117,-829.61 271.575,-835.648"/>
</g>
<!-- SquareOneDOp -->
<g id="node48" class="node"><title>SquareOneDOp</title>
<ellipse fill="#abd3d2" stroke="white" cx="80.3364" cy="-99" rx="66.6839" ry="18"/>
<text text-anchor="middle" x="80.3364" y="-94.8" font-family="Times,serif" font-size="14.00">SquareOneDOp</text>
</g>
<!-- SquareOneDOp&#45;&gt;UnaryElementwiseOneDOp -->
<g id="edge47" class="edge"><title>SquareOneDOp&#45;&gt;UnaryElementwiseOneDOp</title>
<path fill="none" stroke="#999999" d="M136.088,-108.923C145.416,-112.858 154.175,-118.347 160.673,-126 223.665,-200.189 130.221,-270.893 196.673,-342 201.088,-346.725 206.165,-350.692 211.672,-354.017"/>
<polygon fill="#999999" stroke="#999999" points="210.165,-357.178 220.646,-358.73 213.42,-350.981 210.165,-357.178"/>
</g>
<!-- SquareOp -->
<g id="node49" class="node"><title>SquareOp</title>
<ellipse fill="#abd3d2" stroke="white" cx="80.3364" cy="-693" rx="45.4441" ry="18"/>
<text text-anchor="middle" x="80.3364" y="-688.8" font-family="Times,serif" font-size="14.00">SquareOp</text>
</g>
<!-- SquareOp&#45;&gt;UnaryElementwiseAxesOp -->
<g id="edge48" class="edge"><title>SquareOp&#45;&gt;UnaryElementwiseAxesOp</title>
<path fill="none" stroke="#999999" d="M119.431,-702.529C132.976,-706.792 147.999,-712.563 160.673,-720 211.965,-750.097 261.157,-799.672 288.464,-829.638"/>
<polygon fill="#999999" stroke="#999999" points="285.954,-832.082 295.246,-837.173 291.158,-827.399 285.954,-832.082"/>
</g>
<!-- SqrtOneDOp -->
<g id="node50" class="node"><title>SqrtOneDOp</title>
<ellipse fill="#abd3d2" stroke="white" cx="80.3364" cy="-45" rx="56.5545" ry="18"/>
<text text-anchor="middle" x="80.3364" y="-40.8" font-family="Times,serif" font-size="14.00">SqrtOneDOp</text>
</g>
<!-- SqrtOneDOp&#45;&gt;UnaryElementwiseOneDOp -->
<g id="edge49" class="edge"><title>SqrtOneDOp&#45;&gt;UnaryElementwiseOneDOp</title>
<path fill="none" stroke="#999999" d="M131.796,-52.9842C142.767,-56.9961 153.285,-63.0057 160.673,-72 237.514,-165.549 115.466,-252.214 196.673,-342 201.01,-346.796 206.03,-350.817 211.494,-354.181"/>
<polygon fill="#999999" stroke="#999999" points="209.943,-357.32 220.413,-358.944 213.241,-351.146 209.943,-357.32"/>
</g>
<!-- SqrtOp -->
<g id="node51" class="node"><title>SqrtOp</title>
<ellipse fill="#abd3d2" stroke="white" cx="80.3364" cy="-639" rx="35.8147" ry="18"/>
<text text-anchor="middle" x="80.3364" y="-634.8" font-family="Times,serif" font-size="14.00">SqrtOp</text>
</g>
<!-- SqrtOp&#45;&gt;UnaryElementwiseAxesOp -->
<g id="edge50" class="edge"><title>SqrtOp&#45;&gt;UnaryElementwiseAxesOp</title>
<path fill="none" stroke="#999999" d="M113.801,-645.559C128.994,-649.707 146.761,-656.19 160.673,-666 223.22,-710.107 272.845,-787.566 296.119,-828.275"/>
<polygon fill="#999999" stroke="#999999" points="293.121,-830.084 301.072,-837.086 299.223,-826.654 293.121,-830.084"/>
</g>
<!-- BinaryElementWiseAxesOp -->
<g id="node52" class="node"><title>BinaryElementWiseAxesOp</title>
<ellipse fill="#abd3d2" stroke="white" cx="311.541" cy="-315" rx="110.393" ry="18"/>
<text text-anchor="middle" x="311.541" y="-310.8" font-family="Times,serif" font-size="14.00">BinaryElementWiseAxesOp</text>
</g>
<!-- BinaryElementWiseAxesOp&#45;&gt;ElementWise -->
<g id="edge51" class="edge"><title>BinaryElementWiseAxesOp&#45;&gt;ElementWise</title>
<path fill="none" stroke="#999999" d="M402.205,-325.362C429.125,-328.472 458.08,-331.819 482.915,-334.689"/>
<polygon fill="#999999" stroke="#999999" points="482.594,-338.175 492.93,-335.846 483.398,-331.221 482.594,-338.175"/>
</g>
<!-- BinaryElementWiseLowDOp -->
<g id="node53" class="node"><title>BinaryElementWiseLowDOp</title>
<ellipse fill="#abd3d2" stroke="white" cx="311.541" cy="-261" rx="114.737" ry="18"/>
<text text-anchor="middle" x="311.541" y="-256.8" font-family="Times,serif" font-size="14.00">BinaryElementWiseLowDOp</text>
</g>
<!-- BinaryElementWiseLowDOp&#45;&gt;ElementWise -->
<g id="edge52" class="edge"><title>BinaryElementWiseLowDOp&#45;&gt;ElementWise</title>
<path fill="none" stroke="#999999" d="M388.446,-274.388C401.427,-277.968 414.543,-282.44 426.409,-288 444.52,-296.485 444.648,-305.806 462.409,-315 471.768,-319.844 482.163,-324.038 492.358,-327.58"/>
<polygon fill="#999999" stroke="#999999" points="491.438,-330.962 502.031,-330.776 493.634,-324.315 491.438,-330.962"/>
</g>
<!-- Dimshuffle -->
<g id="node54" class="node"><title>Dimshuffle</title>
<ellipse fill="#abd3d2" stroke="white" cx="547.185" cy="-288" rx="49.805" ry="18"/>
<text text-anchor="middle" x="547.185" y="-283.8" font-family="Times,serif" font-size="14.00">Dimshuffle</text>
</g>
<!-- Dimshuffle&#45;&gt;TensorOp -->
<g id="edge53" class="edge"><title>Dimshuffle&#45;&gt;TensorOp</title>
<path fill="none" stroke="#999999" d="M597.171,-288C623.359,-288 655.656,-288 682.559,-288"/>
<polygon fill="#999999" stroke="#999999" points="682.582,-291.5 692.582,-288 682.582,-284.5 682.582,-291.5"/>
</g>
<!-- DotOp -->
<g id="node55" class="node"><title>DotOp</title>
<ellipse fill="#abd3d2" stroke="white" cx="547.185" cy="-234" rx="34.3614" ry="18"/>
<text text-anchor="middle" x="547.185" y="-229.8" font-family="Times,serif" font-size="14.00">DotOp</text>
</g>
<!-- DotOp&#45;&gt;TensorOp -->
<g id="edge54" class="edge"><title>DotOp&#45;&gt;TensorOp</title>
<path fill="none" stroke="#999999" d="M577.609,-242.438C607.832,-251.104 655.3,-264.715 690.492,-274.807"/>
<polygon fill="#999999" stroke="#999999" points="689.948,-278.292 700.526,-277.684 691.878,-271.563 689.948,-278.292"/>
</g>
<!-- LowDimensionalDot -->
<g id="node56" class="node"><title>LowDimensionalDot</title>
<ellipse fill="#abd3d2" stroke="white" cx="547.185" cy="-180" rx="84.5514" ry="18"/>
<text text-anchor="middle" x="547.185" y="-175.8" font-family="Times,serif" font-size="14.00">LowDimensionalDot</text>
</g>
<!-- LowDimensionalDot&#45;&gt;TensorOp -->
<g id="edge55" class="edge"><title>LowDimensionalDot&#45;&gt;TensorOp</title>
<path fill="none" stroke="#999999" d="M606.141,-193C615.307,-196.611 624.28,-201.195 631.96,-207 654.97,-224.394 645.514,-242.885 667.96,-261 674.613,-266.369 682.464,-270.775 690.435,-274.355"/>
<polygon fill="#999999" stroke="#999999" points="689.202,-277.632 699.782,-278.186 691.856,-271.155 689.202,-277.632"/>
</g>
<!-- DotOneDimensional -->
<g id="node57" class="node"><title>DotOneDimensional</title>
<ellipse fill="#abd3d2" stroke="white" cx="311.541" cy="-207" rx="83.0977" ry="18"/>
<text text-anchor="middle" x="311.541" y="-202.8" font-family="Times,serif" font-size="14.00">DotOneDimensional</text>
</g>
<!-- DotOneDimensional&#45;&gt;LowDimensionalDot -->
<g id="edge56" class="edge"><title>DotOneDimensional&#45;&gt;LowDimensionalDot</title>
<path fill="none" stroke="#999999" d="M385.506,-198.568C409.748,-195.767 436.938,-192.625 461.959,-189.733"/>
<polygon fill="#999999" stroke="#999999" points="462.632,-193.179 472.164,-188.554 461.829,-186.225 462.632,-193.179"/>
</g>
<!-- DotTwoDimensional -->
<g id="node58" class="node"><title>DotTwoDimensional</title>
<ellipse fill="#abd3d2" stroke="white" cx="311.541" cy="-153" rx="84.3161" ry="18"/>
<text text-anchor="middle" x="311.541" y="-148.8" font-family="Times,serif" font-size="14.00">DotTwoDimensional</text>
</g>
<!-- DotTwoDimensional&#45;&gt;LowDimensionalDot -->
<g id="edge57" class="edge"><title>DotTwoDimensional&#45;&gt;LowDimensionalDot</title>
<path fill="none" stroke="#999999" d="M385.826,-161.469C410.056,-164.269 437.203,-167.406 462.172,-170.292"/>
<polygon fill="#999999" stroke="#999999" points="462.02,-173.797 472.356,-171.468 462.824,-166.843 462.02,-173.797"/>
</g>
<!-- DotTwoByOne -->
<g id="node59" class="node"><title>DotTwoByOne</title>
<ellipse fill="#abd3d2" stroke="white" cx="311.541" cy="-99" rx="64.0366" ry="18"/>
<text text-anchor="middle" x="311.541" y="-94.8" font-family="Times,serif" font-size="14.00">DotTwoByOne</text>
</g>
<!-- DotTwoByOne&#45;&gt;LowDimensionalDot -->
<g id="edge58" class="edge"><title>DotTwoByOne&#45;&gt;LowDimensionalDot</title>
<path fill="none" stroke="#999999" d="M368.231,-107.443C387.253,-111.555 408.287,-117.509 426.409,-126 444.52,-134.485 444.648,-143.806 462.409,-153 469.033,-156.429 476.177,-159.532 483.402,-162.308"/>
<polygon fill="#999999" stroke="#999999" points="482.668,-165.766 493.262,-165.892 485.059,-159.187 482.668,-165.766"/>
</g>
<!-- Softmax -->
<g id="node60" class="node"><title>Softmax</title>
<ellipse fill="#abd3d2" stroke="white" cx="1034.52" cy="-693" rx="40.149" ry="18"/>
<text text-anchor="middle" x="1034.52" y="-688.8" font-family="Times,serif" font-size="14.00">Softmax</text>
</g>
<!-- Softmax&#45;&gt;object -->
<g id="edge59" class="edge"><title>Softmax&#45;&gt;object</title>
<path fill="none" stroke="#999999" d="M1073.57,-688.45C1093.39,-684.732 1117.31,-678.029 1135.99,-666 1157.51,-652.14 1175.5,-629.093 1187.36,-611.12"/>
<polygon fill="#999999" stroke="#999999" points="1190.58,-612.577 1192.99,-602.259 1184.67,-608.824 1190.58,-612.577"/>
</g>
<!-- ReductionOp -->
<g id="node61" class="node"><title>ReductionOp</title>
<ellipse fill="#abd3d2" stroke="white" cx="547.185" cy="-126" rx="57.0305" ry="18"/>
<text text-anchor="middle" x="547.185" y="-121.8" font-family="Times,serif" font-size="14.00">ReductionOp</text>
</g>
<!-- ReductionOp&#45;&gt;TensorOp -->
<g id="edge60" class="edge"><title>ReductionOp&#45;&gt;TensorOp</title>
<path fill="none" stroke="#999999" d="M598.903,-134.1C610.972,-138.101 622.947,-144.076 631.96,-153 667.915,-188.598 633.153,-224.279 667.96,-261 673.59,-266.939 680.687,-271.596 688.166,-275.241"/>
<polygon fill="#999999" stroke="#999999" points="687.192,-278.63 697.763,-279.336 689.939,-272.192 687.192,-278.63"/>
</g>
<!-- TensorSizeOp -->
<g id="node62" class="node"><title>TensorSizeOp</title>
<ellipse fill="#abd3d2" stroke="white" cx="547.185" cy="-72" rx="60.1605" ry="18"/>
<text text-anchor="middle" x="547.185" y="-67.8" font-family="Times,serif" font-size="14.00">TensorSizeOp</text>
</g>
<!-- TensorSizeOp&#45;&gt;TensorOp -->
<g id="edge61" class="edge"><title>TensorSizeOp&#45;&gt;TensorOp</title>
<path fill="none" stroke="#999999" d="M601.291,-80.0748C612.74,-84.0883 623.83,-90.0758 631.96,-99 681.63,-153.524 620.045,-204.927 667.96,-261 673.276,-267.221 680.217,-272.019 687.637,-275.717"/>
<polygon fill="#999999" stroke="#999999" points="686.638,-279.098 697.208,-279.837 689.406,-272.668 686.638,-279.098"/>
</g>
<!-- OneHotOp -->
<g id="node63" class="node"><title>OneHotOp</title>
<ellipse fill="#abd3d2" stroke="white" cx="547.185" cy="-18" rx="48.8273" ry="18"/>
<text text-anchor="middle" x="547.185" y="-13.8" font-family="Times,serif" font-size="14.00">OneHotOp</text>
</g>
<!-- OneHotOp&#45;&gt;TensorOp -->
<g id="edge62" class="edge"><title>OneHotOp&#45;&gt;TensorOp</title>
<path fill="none" stroke="#999999" d="M594.22,-23.4433C608.197,-27.3218 622.375,-33.8949 631.96,-45 695.553,-118.675 606.737,-185.344 667.96,-261 673.108,-267.361 679.964,-272.229 687.353,-275.953"/>
<polygon fill="#999999" stroke="#999999" points="686.341,-279.329 696.909,-280.085 689.119,-272.904 686.341,-279.329"/>
</g>
<!-- OneHotTwoDimOp -->
<g id="node64" class="node"><title>OneHotTwoDimOp</title>
<ellipse fill="#abd3d2" stroke="white" cx="311.541" cy="-18" rx="80.4575" ry="18"/>
<text text-anchor="middle" x="311.541" y="-13.8" font-family="Times,serif" font-size="14.00">OneHotTwoDimOp</text>
</g>
<!-- OneHotTwoDimOp&#45;&gt;OneHotOp -->
<g id="edge63" class="edge"><title>OneHotTwoDimOp&#45;&gt;OneHotOp</title>
<path fill="none" stroke="#999999" d="M391.968,-18C423.309,-18 458.664,-18 487.608,-18"/>
<polygon fill="#999999" stroke="#999999" points="487.963,-21.5001 497.963,-18 487.963,-14.5001 487.963,-21.5001"/>
</g>
<!-- Sigmoid -->
<g id="node65" class="node"><title>Sigmoid</title>
<ellipse fill="#abd3d2" stroke="white" cx="1034.52" cy="-639" rx="40.1663" ry="18"/>
<text text-anchor="middle" x="1034.52" y="-634.8" font-family="Times,serif" font-size="14.00">Sigmoid</text>
</g>
<!-- Sigmoid&#45;&gt;object -->
<g id="edge64" class="edge"><title>Sigmoid&#45;&gt;object</title>
<path fill="none" stroke="#999999" d="M1070.24,-630.781C1089.73,-625.889 1114.41,-619.235 1135.99,-612 1146.67,-608.418 1158.11,-604.009 1168.44,-599.8"/>
<polygon fill="#999999" stroke="#999999" points="1170.05,-602.922 1177.95,-595.86 1167.37,-596.455 1170.05,-602.922"/>
</g>
<!-- Function -->
<g id="node66" class="node"><title>Function</title>
<ellipse fill="#abd3d2" stroke="white" cx="737.501" cy="-180" rx="41.6025" ry="18"/>
<text text-anchor="middle" x="737.501" y="-175.8" font-family="Times,serif" font-size="14.00">Function</text>
</g>
<!-- Function&#45;&gt;Op -->
<g id="edge65" class="edge"><title>Function&#45;&gt;Op</title>
<path fill="none" stroke="#999999" d="M775.126,-187.865C786.627,-191.914 798.529,-197.976 807.042,-207 849.678,-252.195 863.008,-327.22 867.166,-367.82"/>
<polygon fill="#999999" stroke="#999999" points="863.685,-368.191 868.075,-377.834 870.657,-367.558 863.685,-368.191"/>
</g>
<!-- Buffer -->
<g id="node67" class="node"><title>Buffer</title>
<ellipse fill="#abd3d2" stroke="white" cx="1034.52" cy="-585" rx="33.0632" ry="18"/>
<text text-anchor="middle" x="1034.52" y="-580.8" font-family="Times,serif" font-size="14.00">Buffer</text>
</g>
<!-- Buffer&#45;&gt;object -->
<g id="edge66" class="edge"><title>Buffer&#45;&gt;object</title>
<path fill="none" stroke="#999999" d="M1067.75,-585C1094.54,-585 1132.82,-585 1161.77,-585"/>
<polygon fill="#999999" stroke="#999999" points="1161.98,-588.5 1171.98,-585 1161.98,-581.5 1161.98,-588.5"/>
</g>
<!-- CrossEntropyMultiInner -->
<g id="node68" class="node"><title>CrossEntropyMultiInner</title>
<ellipse fill="#abd3d2" stroke="white" cx="1034.52" cy="-531" rx="97.1208" ry="18"/>
<text text-anchor="middle" x="1034.52" y="-526.8" font-family="Times,serif" font-size="14.00">CrossEntropyMultiInner</text>
</g>
<!-- CrossEntropyMultiInner&#45;&gt;object -->
<g id="edge67" class="edge"><title>CrossEntropyMultiInner&#45;&gt;object</title>
<path fill="none" stroke="#999999" d="M1093.52,-545.295C1107.53,-549.101 1122.37,-553.435 1135.99,-558 1146.67,-561.582 1158.11,-565.991 1168.44,-570.2"/>
<polygon fill="#999999" stroke="#999999" points="1167.37,-573.545 1177.95,-574.14 1170.05,-567.078 1167.37,-573.545"/>
</g>
<!-- CrossEntropyBinaryInner -->
<g id="node69" class="node"><title>CrossEntropyBinaryInner</title>
<ellipse fill="#abd3d2" stroke="white" cx="1034.52" cy="-477" rx="101.447" ry="18"/>
<text text-anchor="middle" x="1034.52" y="-472.8" font-family="Times,serif" font-size="14.00">CrossEntropyBinaryInner</text>
</g>
<!-- CrossEntropyBinaryInner&#45;&gt;object -->
<g id="edge68" class="edge"><title>CrossEntropyBinaryInner&#45;&gt;object</title>
<path fill="none" stroke="#999999" d="M1105.73,-489.837C1116.35,-493.455 1126.8,-498.083 1135.99,-504 1157.51,-517.86 1175.5,-540.907 1187.36,-558.88"/>
<polygon fill="#999999" stroke="#999999" points="1184.67,-561.176 1192.99,-567.741 1190.58,-557.423 1184.67,-561.176"/>
</g>
</g>
</svg>
